<?xml version="1.0" encoding="UTF-8"?>
<svg id="Layer_1" data-name="Layer 1" xmlns="http://www.w3.org/2000/svg" viewBox="0 0 39.02 39.01">
  <path id="icons8-search-more" d="m25.41,0c-7.5,0-13.59,6.08-13.6,13.58,0,2.9.92,5.72,2.64,8.06l-2.51,2.51c-.2-.08-.41-.12-.62-.12-.47,0-.92.18-1.25.52L.52,34.11c-.69.69-.69,1.81,0,2.51l1.88,1.88c.69.69,1.81.69,2.51,0l9.56-9.56c.49-.49.64-1.23.4-1.88l2.51-2.51c6.05,4.45,14.56,3.15,19-2.9,4.45-6.05,3.15-14.56-2.9-19C31.14.92,28.31,0,25.41,0Zm0,1.18c6.86,0,12.41,5.56,12.41,12.41,0,6.86-5.56,12.41-12.41,12.41-6.85,0-12.41-5.56-12.41-12.41,0-6.85,5.53-12.41,12.38-12.42.01,0,.02,0,.03,0Zm0,1.18c-.33,0-.59.26-.59.59,0,.33.26.59.59.59s.59-.26.59-.59h0c0-.33-.26-.59-.59-.59h0Zm-2.76.36c-.33,0-.59.26-.59.59,0,.33.26.59.59.59s.59-.26.59-.59h0c0-.33-.26-.59-.59-.59Zm5.51,0c-.33,0-.59.26-.59.59s.26.59.59.59.59-.26.59-.59h0c0-.33-.26-.59-.59-.59h0Zm-8.07,1.06c-.33,0-.59.26-.59.59,0,.33.26.59.59.59s.59-.26.59-.59h0c0-.33-.26-.59-.59-.59Zm10.64,0c-.33,0-.59.26-.59.59s.26.59.59.59.59-.26.59-.59h0c0-.33-.26-.59-.59-.59Zm-12.84,1.69c-.33,0-.59.26-.59.59,0,.33.26.59.59.59s.59-.26.59-.59h0c0-.33-.26-.59-.59-.59Zm15.05,0c-.33,0-.59.26-.59.59s.26.59.59.59.59-.26.59-.59h0c0-.33-.26-.59-.59-.59,0,0,0,0,0,0h0Zm1.69,2.2c-.33,0-.59.26-.59.59s.26.59.59.59.59-.26.59-.59h0c0-.33-.27-.59-.59-.59h0Zm-18.43,0c-.33,0-.59.26-.59.59,0,.33.26.59.59.59s.59-.26.59-.59h0c0-.33-.27-.59-.59-.59h0Zm-1.06,2.56c-.33,0-.59.26-.59.59,0,.33.26.59.59.59.33,0,.59-.26.59-.59h0c0-.33-.27-.59-.59-.59h0Zm20.56,0c-.33,0-.59.26-.59.59s.26.59.59.59c.33,0,.59-.26.59-.59h0c0-.32-.27-.59-.59-.59h0Zm-15.01,2.16c-.65,0-1.18.53-1.18,1.18,0,.65.53,1.18,1.18,1.18.65,0,1.18-.53,1.18-1.18,0-.65-.53-1.18-1.18-1.19,0,0,0,0,0,0Zm4.73,0c-.65,0-1.18.53-1.18,1.18,0,.65.53,1.18,1.18,1.18.65,0,1.18-.53,1.18-1.18,0-.65-.53-1.18-1.18-1.19,0,0,0,0,0,0Zm4.73,0c-.65,0-1.18.53-1.18,1.18,0,.65.53,1.18,1.18,1.18.65,0,1.18-.53,1.18-1.18,0-.65-.53-1.18-1.18-1.19,0,0,0,0,0,0Zm-15.37.59c-.33,0-.59.26-.59.59,0,.33.26.59.59.59.33,0,.59-.26.59-.59h0c0-.33-.26-.59-.59-.59Zm21.28,0c-.33,0-.59.26-.59.59s.26.59.59.59c.33,0,.59-.26.59-.59h0c0-.33-.26-.59-.59-.59h0,0Zm-20.92,2.76c-.33,0-.59.26-.59.59,0,.33.26.59.59.59.33,0,.59-.26.59-.59h0c0-.33-.26-.59-.59-.59Zm20.56,0c-.33,0-.59.26-.59.59s.26.59.59.59c.33,0,.59-.26.59-.59h0c0-.32-.26-.59-.59-.59h0Zm-19.49,2.56c-.33,0-.59.26-.59.59,0,.33.26.59.59.59.33,0,.59-.26.59-.59h0c0-.33-.26-.59-.59-.59Zm18.43,0c-.33,0-.59.26-.59.59s.26.59.59.59c.33,0,.59-.26.59-.59h0c0-.33-.27-.59-.59-.59h0Zm-16.74,2.2c-.33,0-.59.26-.59.59,0,.33.26.59.59.59.33,0,.59-.26.59-.59h0c0-.33-.26-.59-.59-.59Zm15.05,0c-.33,0-.59.26-.59.59s.26.59.59.59c.33,0,.59-.26.59-.59h0c0-.33-.26-.59-.59-.59,0,0,0,0,0,0h0Zm-2.2,1.69c-.33,0-.59.26-.59.59s.26.59.59.59c.33,0,.59-.26.59-.59h0c0-.33-.26-.59-.59-.59,0,0,0,0,0,0h0Zm-10.64,0c-.33,0-.59.26-.59.59,0,.33.26.59.59.59.33,0,.59-.26.59-.59h0c0-.33-.27-.59-.59-.59,0,0,0,0,0,0h0Zm-4.89.35c.38.44.79.85,1.23,1.23l-2.3,2.3-1.23-1.23,2.31-2.3Zm7.45.71c-.33,0-.59.26-.59.59,0,.33.26.59.59.59.33,0,.59-.26.59-.59h0c0-.33-.27-.59-.59-.59,0,0,0,0,0,0h0Zm5.51,0c-.33,0-.59.26-.59.59s.26.59.59.59c.33,0,.59-.26.59-.59h0c0-.33-.27-.59-.59-.59,0,0,0,0,0,0h0Zm-2.75.36c-.33,0-.59.26-.59.59,0,.33.26.59.59.59.33,0,.59-.26.59-.59h0c0-.33-.26-.59-.59-.59,0,0,0,0,0,0h0Zm-14.09,1.57c.16,0,.31.06.42.18l1.88,1.88c.23.22.24.59.01.82,0,0,0,0-.01.01l-9.56,9.56c-.22.23-.59.24-.82.01,0,0,0,0-.01-.01l-1.87-1.88c-.23-.22-.24-.59-.01-.82,0,0,0,0,.01-.01l1.01-1.01,1.36,1.35.84-.84-1.36-1.36.94-.94,1.36,1.36.84-.84-1.36-1.35.94-.94,1.35,1.35.84-.84-1.35-1.36.94-.94,1.35,1.35.84-.84-1.35-1.35.94-.94,1.36,1.35.84-.84-1.35-1.35.62-.62c.11-.11.26-.18.42-.18Z" fill="#212738"/>
</svg>