<?xml version="1.0" encoding="UTF-8"?>
<svg id="Layer_1" data-name="Layer 1" xmlns="http://www.w3.org/2000/svg" viewBox="0 0 29.82 34.14">
  <path id="icons8-time" d="m11.92,0c-.53,0-.96.43-.97.96v1.44c0,.53.44.96.97.96h.97v1.09C4.73,5.57-.98,13.09.14,21.25c1.12,8.16,8.64,13.87,16.79,12.75,7.38-1.01,12.89-7.32,12.89-14.77,0-3.67-1.36-7.22-3.83-9.94l.68-.68c.37.2.83.13,1.13-.16l.54-.54h0c.37-.38.37-.98,0-1.36l-1.73-1.73c-.38-.37-.99-.37-1.37,0l-.54.54c-.3.3-.36.76-.17,1.13l-.78.78c-2.06-1.52-4.46-2.49-7-2.82v-1.09h.96c.53,0,.96-.43.97-.96V.96c0-.53-.44-.96-.97-.96h-5.8Zm0,.96h5.8v1.44h-5.8V.96Zm1.93,2.4h1.93v.96h-1.94v-.96Zm.97,1.93c7.7.05,13.9,6.33,13.85,14.03-.05,7.7-6.33,13.9-14.03,13.85-7.67-.05-13.85-6.28-13.85-13.94.02-7.72,6.3-13.96,14.02-13.94,0,0,0,0,.01,0Zm11.11.21l1.74,1.72-.54.54-1.74-1.72.54-.54Zm-11.11,1.23c-.27,0-.48.22-.48.48,0,.27.22.48.48.48.26,0,.48-.22.48-.48,0-.27-.22-.48-.48-.48Zm-3.13.41s-.02,0-.03,0c-.03,0-.07,0-.1.02-.26.07-.41.34-.34.59.07.26.34.41.59.34.26-.07.41-.34.34-.59-.06-.21-.25-.36-.46-.36h0Zm6.25,0c-.27,0-.48.22-.48.49s.22.48.49.48c.27,0,.48-.22.48-.49,0-.22-.15-.41-.36-.46-.04-.01-.09-.02-.13-.02h0Zm7.24.06l.77.76-.64.64c-.26-.25-.53-.5-.8-.73l.67-.67Zm-16.43,1.14c-.21,0-.4.15-.46.36-.03.12-.01.25.05.36.13.23.43.31.66.18h0c.23-.13.31-.42.18-.66-.09-.16-.26-.25-.44-.25h0Zm12.09,0c-.17,0-.32.1-.4.24-.13.23-.05.53.18.66.23.13.53.05.66-.18.13-.23.06-.52-.17-.66-.08-.04-.17-.07-.26-.06h0Zm-14.57,1.91c-.27,0-.49.2-.49.47,0,.13.05.26.14.35.09.09.21.14.34.14.13,0,.25-.05.34-.14.19-.19.19-.49,0-.68-.09-.09-.21-.14-.34-.14Zm17.11,0c-.13,0-.26.05-.35.14-.19.19-.19.49,0,.68.19.19.5.19.69,0,.19-.19.19-.49,0-.68-.09-.09-.21-.14-.34-.14Zm-15.18,1.96l-.67.69,5.62,5.39c-.17.28-.26.61-.26.94,0,1.06.87,1.92,1.94,1.92.34,0,.68-.1.98-.27l.98.97.69-.68-.98-.97c.18-.29.27-.63.27-.97,0-1.06-.87-1.92-1.94-1.92-.36,0-.7.1-1.01.29l-5.62-5.39Zm17.09.53c-.08,0-.16.02-.23.06-.23.13-.31.43-.17.66.13.23.43.31.66.17.23-.13.31-.42.18-.65,0,0,0,0,0,0-.09-.15-.25-.24-.43-.24h0Zm-20.96,0c-.17,0-.32.1-.4.24-.06.11-.08.24-.05.36.07.26.34.41.59.34.12-.03.23-.11.29-.22.13-.23.06-.52-.17-.65,0,0,0,0,0,0-.08-.05-.17-.07-.26-.06h0Zm-1.19,2.9c-.26,0-.47.22-.47.49s.22.47.49.47c.26,0,.47-.22.47-.49,0-.21-.15-.4-.36-.45-.04-.01-.09-.02-.13-.01h0Zm23.39,0s-.1,0-.14.02c-.26.07-.41.33-.34.59.07.26.33.41.59.34.26-.07.41-.33.34-.59-.06-.2-.24-.34-.45-.35Zm-11.7,2.63c.53,0,.96.44.96.97,0,.53-.44.96-.97.96-.53,0-.96-.43-.96-.96,0-.53.42-.96.95-.96,0,0,.01,0,.02,0Zm-12.1.48c-.27,0-.48.22-.48.48,0,.27.22.48.48.48.26,0,.48-.22.48-.48,0-.27-.22-.48-.48-.48Zm24.19,0c-.27,0-.48.22-.48.48,0,.27.22.48.48.48.26,0,.48-.22.48-.48,0-.26-.21-.48-.48-.48h0Zm-23.76,3.11s-.1,0-.14.02c-.26.07-.41.33-.34.59.07.26.33.41.59.34.25-.07.41-.33.34-.59-.06-.2-.24-.35-.45-.36h0Zm23.35,0c-.27,0-.48.22-.48.49s.22.48.49.48.48-.22.48-.49c0-.22-.15-.41-.36-.47-.04-.01-.08-.02-.13-.02h0Zm-22.17,2.9c-.08,0-.16.02-.23.06-.23.13-.31.42-.18.66.06.11.17.19.3.23.26.07.52-.08.59-.34.03-.12.02-.25-.05-.37-.09-.15-.25-.24-.43-.24h0Zm20.94,0c-.17,0-.32.1-.4.24-.13.23-.05.52.18.66.23.13.53.06.66-.18,0,0,0,0,0,0,.13-.23.05-.53-.18-.66-.08-.04-.17-.07-.26-.06h0Zm-19,2.49c-.13,0-.26.05-.35.14-.19.19-.19.49,0,.68.19.19.5.19.69,0,.19-.19.19-.49,0-.68-.09-.09-.21-.14-.33-.14h0Zm17.11,0c-.13,0-.26.05-.35.14-.19.19-.19.49,0,.68.19.19.5.19.69,0,.19-.19.19-.49,0-.68-.09-.09-.21-.14-.33-.14h0Zm-2.52,1.91c-.08,0-.16.02-.23.06-.23.13-.31.42-.18.65,0,0,0,0,0,0,.13.23.43.31.66.18.11-.06.19-.17.22-.29.03-.12.02-.25-.05-.36-.09-.15-.25-.24-.43-.24h0Zm-12.11,0c-.27.01-.47.24-.46.5.01.27.24.47.5.46.16,0,.31-.1.39-.24.07-.11.08-.24.05-.36-.03-.12-.11-.23-.23-.29-.08-.04-.17-.07-.26-.06h0Zm9.21,1.2s-.02,0-.04,0c-.03,0-.06,0-.09.01-.26.07-.41.33-.34.58,0,0,0,0,0,0,.06.26.33.42.59.36.26-.06.42-.33.36-.59-.05-.22-.25-.37-.47-.37h0Zm-6.27,0c-.27,0-.48.22-.47.49,0,.27.22.48.49.47.27,0,.48-.22.47-.49,0-.22-.15-.4-.36-.46-.04-.01-.08-.01-.13-.01h0Zm3.14.41c-.27,0-.48.22-.48.48,0,.27.22.48.48.48.26,0,.48-.22.48-.48,0-.27-.22-.48-.48-.48Z" fill="#212738"/>
</svg>