<?xml version="1.0" encoding="UTF-8"?>
<svg id="Layer_1" data-name="Layer 1" xmlns="http://www.w3.org/2000/svg" viewBox="0 0 39.18 37.87">
  <path id="icons8-adjust" d="m3.92,0c-.36,0-.65.29-.65.65s.29.65.65.65.65-.29.65-.65h0c0-.36-.29-.65-.65-.65Zm15.67,0c-.36,0-.65.29-.65.65s.29.65.65.65.65-.29.65-.65h0c0-.36-.29-.65-.65-.65Zm15.67,0c-.36,0-.65.29-.65.65s.29.65.65.65.65-.29.65-.65h0c0-.36-.29-.65-.65-.65ZM3.92,2.61c-.36,0-.65.29-.65.65s.29.65.65.65.65-.29.65-.65h0c0-.36-.29-.65-.65-.65Zm15.67,0c-.36,0-.65.29-.65.65s.29.65.65.65.65-.29.65-.65h0c0-.36-.29-.65-.65-.65Zm15.67,0c-.36,0-.65.29-.65.65s.29.65.65.65.65-.29.65-.65h0c0-.36-.29-.65-.65-.65ZM3.92,5.22c-.36,0-.65.29-.65.65s.29.65.65.65.65-.29.65-.65h0c0-.36-.29-.65-.65-.65Zm15.67,0c-.36,0-.65.29-.65.65s.29.65.65.65.65-.29.65-.65h0c0-.36-.29-.65-.65-.65Zm15.67,0c-.36,0-.65.29-.65.65s.29.65.65.65.65-.29.65-.65h0c0-.36-.29-.65-.65-.65ZM3.92,7.84c-.36,0-.65.29-.65.65s.29.65.65.65.65-.29.65-.65h0c0-.36-.29-.65-.65-.65Zm13.71,0c-1.08,0-1.95.88-1.96,1.96v1.31c0,1.08.88,1.95,1.96,1.96h1.31v24.81h1.31V13.06h1.31c1.08,0,1.95-.88,1.96-1.96v-1.31c0-1.08-.88-1.95-1.96-1.96h-3.92Zm17.63,0c-.36,0-.65.29-.65.65s.29.65.65.65.65-.29.65-.65h0c0-.36-.29-.65-.65-.65Zm-17.63,1.31h3.92c.36,0,.65.28.65.64,0,0,0,.01,0,.02v1.31c0,.35-.28.65-.63.65,0,0-.01,0-.02,0h-3.92c-.35,0-.65-.28-.65-.63,0,0,0-.01,0-.02v-1.31c0-.35.28-.65.63-.65,0,0,.01,0,.02,0Zm-13.71,1.31c-.36,0-.65.29-.65.65s.29.65.65.65.65-.29.65-.65h0c0-.36-.29-.65-.65-.65Zm31.34,0c-.36,0-.65.29-.65.65s.29.65.65.65.65-.29.65-.65h0c0-.36-.29-.65-.65-.65ZM3.92,13.06c-.36,0-.65.29-.65.65s.29.65.65.65.65-.29.65-.65h0c0-.36-.29-.65-.65-.65Zm31.34,0c-.36,0-.65.29-.65.65s.29.65.65.65.65-.29.65-.65h0c0-.36-.29-.65-.65-.65ZM3.92,15.67c-.36,0-.65.29-.65.65s.29.65.65.65.65-.29.65-.65h0c0-.36-.29-.65-.65-.65Zm31.34,0c-.36,0-.65.29-.65.65s.29.65.65.65.65-.29.65-.65h0c0-.36-.29-.65-.65-.65Zm-31.34,2.61c-.36,0-.65.29-.65.65s.29.65.65.65.65-.29.65-.65h0c0-.36-.29-.65-.65-.65Zm31.34,0c-.36,0-.65.29-.65.65s.29.65.65.65.65-.29.65-.65h0c0-.36-.29-.65-.65-.65ZM1.96,20.9c-1.08,0-1.95.88-1.96,1.96v1.31c0,1.08.88,1.95,1.96,1.96h1.31v11.75h1.31v-11.75h1.31c1.08,0,1.95-.88,1.96-1.96v-1.31c0-1.08-.88-1.95-1.96-1.96H1.96Zm33.3,0c-.36,0-.65.29-.65.65s.29.65.65.65.65-.29.65-.65h0c0-.36-.29-.65-.65-.65ZM1.96,22.2h3.92c.36,0,.65.28.65.64,0,0,0,.01,0,.02v1.31c0,.35-.28.65-.63.65,0,0-.01,0-.02,0H1.96c-.35,0-.65-.28-.65-.63,0,0,0-.01,0-.02v-1.31c0-.35.28-.65.63-.65,0,0,.02,0,.02,0Zm33.3,1.31c-.36,0-.65.29-.65.65s.29.65.65.65.65-.29.65-.65h0c0-.36-.29-.65-.65-.65h0Zm-1.96,2.61c-1.08,0-1.95.88-1.96,1.96v1.31c0,1.08.88,1.95,1.96,1.96h1.31v6.53h1.31v-6.53h1.31c1.08,0,1.95-.88,1.96-1.96v-1.31c0-1.08-.88-1.95-1.96-1.96h-3.92Zm0,1.31h3.92c.36,0,.65.28.65.64,0,0,0,.01,0,.02v1.31c0,.35-.28.65-.63.65,0,0-.01,0-.02,0h-3.92c-.35,0-.65-.28-.65-.63,0,0,0-.01,0-.02v-1.31c0-.35.28-.65.63-.65,0,0,.01,0,.02,0Z" fill="#212738"/>
</svg>