<?xml version="1.0" encoding="UTF-8"?>
<svg id="Layer_1" data-name="Layer 1" xmlns="http://www.w3.org/2000/svg" viewBox="0 0 34.69 18.74">
  <path d="m.09,18.28c-.03.07-.06.14-.09.21,0,.08.04.15.11.18l.15.06c.08.02.15-.01.2-.07.02-.06.05-.12.07-.18C5.04,6.92,14.48-.42,23.59.59c2.36.26,5.9,1.29,9.58,4.62-.43-.14-.87-.26-1.33-.35-.79-.16-1.55-.23-2.62-.23-.11,0-.2.1-.21.21s.09.2.21.2c1.04,0,1.79.06,2.54.22.94.19,1.87.49,2.62.87.08.05.2.04.26-.04.06-.07.06-.17.02-.25h-.01c-.54-.64-1.06-1.49-1.47-2.37-.32-.7-.55-1.41-.78-2.43-.03-.1-.13-.18-.24-.15-.11.03-.18.13-.15.24.24,1.05.48,1.78.8,2.5.18.38.37.75.57,1.1C29.64,1.4,26.05.37,23.65.1,14.31-.95,4.67,6.52.09,18.28Z" fill="#4b505e"/>
</svg>