<?xml version="1.0" encoding="UTF-8"?>
<svg id="Layer_1" data-name="Layer 1" xmlns="http://www.w3.org/2000/svg" viewBox="0 0 24 4.98">
  <path d="m23.95,4.65h0c-.61-.58-1.23-1.36-1.74-2.19-.4-.66-.71-1.34-1.06-2.32-.04-.1-.15-.16-.26-.12h0c-.11.04-.16.15-.12.26.36,1.01.68,1.71,1.09,2.39.26.42.54.83.83,1.2-3.24-1.85-7.57-3.19-11.87-3.26-3.41-.05-6.63-.1-10.75,3.03-.09.07-.11.2-.04.29.07.09.19.1.28.04C4.34.92,7.49.96,10.83,1.01c4.23.06,8.49,1.38,11.67,3.2-.47-.1-.96-.17-1.45-.21-.8-.07-1.57-.05-2.63.08-.11.01-.19.12-.18.23.01.11.11.19.23.17,1.03-.13,1.78-.15,2.55-.08.96.08,1.91.27,2.7.56.09.04.2.02.25-.07h0c.05-.08.04-.18-.01-.25Z" fill="#4b505e"/>
</svg>