<?xml version="1.0" encoding="utf-8"?>
<!-- Generator: Adobe Illustrator 27.2.0, SVG Export Plug-In . SVG Version: 6.00 Build 0)  -->
<svg version="1.1" id="Layer_1" xmlns="http://www.w3.org/2000/svg" xmlns:xlink="http://www.w3.org/1999/xlink" x="0px" y="0px"
	 viewBox="0 0 447.8 163.4" style="enable-background:new 0 0 447.8 163.4;" xml:space="preserve">
<style type="text/css">
	.st0{fill:#fc9f64;}
</style>
<path class="st0" d="M295.5,2l-19.6,11.1c-4.8,2.7-4.7,7.1,0.2,9.7l80.7,44.1H12c-6.6,0-12,3.1-12,6.8v15.9c0,3.8,5.4,6.8,12,6.8
	h344.8l-80.7,44.1c-4.8,2.7-4.9,7-0.2,9.7l19.6,11.1c4.7,2.7,12.3,2.7,17,0l131.8-74.9c4.7-2.7,4.7-7,0-9.7L312.5,2
	C307.8-0.7,300.2-0.7,295.5,2L295.5,2z"/>
</svg>
