<?xml version="1.0" encoding="UTF-8"?>
<svg id="Layer_1" data-name="Layer 1" xmlns="http://www.w3.org/2000/svg" viewBox="0 0 248.65 64.78">
  <path id="Path_301" data-name="Path 301" d="m43.28,46.95c-.42-10.73,7.93-19.76,18.66-20.18.24,0,.48-.01.72-.01,11.39-.05,19.65,7.63,19.65,19v16.33c0,.99-.81,1.8-1.8,1.8h-5.94c-1.02,0-1.85-.83-1.85-1.85h0v-1.29c-2.92,2.73-6.81,4.18-10.81,4.01-9.84.44-18.17-7.19-18.61-17.03-.01-.26-.02-.52-.02-.78Zm29.26-1.55c-.17-5.35-4.57-9.6-9.92-9.58-5.3-.01-9.61,4.27-9.62,9.58,0,.25,0,.5.03.75.12,5.34,4.52,9.6,9.86,9.54,5.3.05,9.63-4.22,9.68-9.52,0-.26,0-.52-.02-.78h0Z" fill="#e3eaff"/>
  <path id="Path_344" data-name="Path 344" d="m205.38,52.75l1.71,4.4c.29.74.05,1.57-.58,2.05-4.37,3.29-9.68,5.09-15.15,5.14-11.4,0-19.82-8.26-19.82-18.88s8.26-18.96,19.27-18.96c9.17,0,16.68,5.89,17.87,16.34.04.38-.19.73-.55.85l-25.49,8.22c2.01,2.85,5.33,4.48,8.81,4.32,3.54,0,7.33-1.24,11.24-4.23.76-.59,1.86-.45,2.45.31.1.13.19.28.25.43m-24.48-8.47l17.38-5.66c-1.52-2.62-4.36-4.19-7.39-4.09-5.43,0-9.44,4.09-9.99,9.75" fill="#e3eaff"/>
  <path id="Path_345" data-name="Path 345" d="m245.34,52.78l1.71,4.38c.29.73.05,1.56-.57,2.03-4.37,3.29-9.68,5.1-15.15,5.15-11.4,0-19.82-8.26-19.82-18.88s8.26-18.96,19.27-18.96c9.2,0,16.72,5.92,17.88,16.43.03.33-.17.63-.48.73l-25.58,8.25c2.01,2.85,5.33,4.48,8.81,4.32,3.54,0,7.31-1.23,11.21-4.21.78-.6,1.89-.45,2.49.32.1.13.18.28.25.43m-24.48-8.5l17.38-5.66c-1.52-2.62-4.36-4.19-7.39-4.09-5.43,0-9.44,4.09-9.99,9.75" fill="#e3eaff"/>
  <path id="Path_346" data-name="Path 346" d="m88.38,45.78c0-11.33,9.76-18.99,19.69-18.99,11.32,0,19.34,7.67,19.34,18.99v16.33c0,.99-.8,1.79-1.79,1.79h-6.1c-1.03,0-1.87-.84-1.87-1.87v-16.25c.03-5.45-4.35-9.89-9.8-9.93-5.28-.08-9.63,4.13-9.72,9.42,0,.17,0,.34,0,.51v16.34c0,.98-.8,1.78-1.78,1.78h-6.22c-.97,0-1.76-.79-1.76-1.76v-16.36Z" fill="#e3eaff"/>
  <path id="Path_347" data-name="Path 347" d="m135.26,0h6.3c.97,0,1.76.79,1.76,1.75h0v42.84l15.41-16.59c.36-.39.87-.61,1.4-.61h6.71c.97,0,1.76.79,1.76,1.76,0,.44-.17.87-.47,1.2l-6.73,7.23,8.63,23.98c.33.91-.15,1.92-1.06,2.25-.19.07-.39.1-.6.1h-6.06c-.76,0-1.44-.48-1.7-1.19l-6.41-17.42-10.89,11.76v5.06c0,.99-.8,1.78-1.78,1.78h-6.16c-1.04,0-1.89-.85-1.89-1.89V1.77C133.49.8,134.28,0,135.26,0" fill="#e3eaff"/>
  <path id="Path_348" data-name="Path 348" d="m0,45.64V1.81C0,.81.81,0,1.81,0h6.34C9.08,0,9.83.75,9.83,1.68h0v28.86c2.11-2.46,6.14-4.04,10.71-4.04,10.71,0,18.3,7.25,18.76,18.08.38,10.77-8.04,19.8-18.81,20.18-.19,0-.38.01-.56.01-11.55.12-19.93-7.63-19.93-19.13m28.32-1.04c-.43-4.87-4.37-8.68-9.24-8.95-6.61-.31-11.45,5.14-10.16,12.26.72,3.93,3.84,6.98,7.78,7.6,7.14,1.09,12.21-4.2,11.63-10.9" fill="#e3eaff"/>
</svg>