<svg xmlns="http://www.w3.org/2000/svg" width="126.43" height="34.096" viewBox="0 0 126.43 34.096">
  <g id="Group_534" data-name="Group 534" transform="translate(-60 -43.667)">
    <path id="Path_343" data-name="Path 343" d="M90.564,69.165l-.123-.925a7.144,7.144,0,0,1-4.851,1.8,6.852,6.852,0,0,1-7.109-6.774c0-3.805,3.053-6.732,7.276-6.732a8,8,0,0,1,4.349,1.38v-.669c0-2.091-1.045-3.178-4.14-3.178a13.912,13.912,0,0,0-3.981.612.378.378,0,0,1-.479-.425l.531-3.286a.384.384,0,0,1,.285-.31,19.288,19.288,0,0,1,4.732-.607c5.394,0,8.363,2.258,8.363,6.858v9.158l.148,3.031a.38.38,0,0,1-.379.4H90.94a.38.38,0,0,1-.376-.33m-.29-6.026a3.043,3.043,0,0,0-3.22-2.969,2.973,2.973,0,1,0,0,5.938,3.043,3.043,0,0,0,3.22-2.969" transform="translate(3.628 7.716)" fill="#212738"/>
    <path id="Path_344" data-name="Path 344" d="M322.542,63.341l.9,2.315a.927.927,0,0,1-.3,1.078,13.466,13.466,0,0,1-7.974,2.708c-6,0-10.433-4.347-10.433-9.936a9.892,9.892,0,0,1,10.143-9.977c4.827,0,8.78,3.1,9.4,8.6a.423.423,0,0,1-.292.447L310.571,62.9a5.38,5.38,0,0,0,4.637,2.277,9.672,9.672,0,0,0,5.916-2.228.92.92,0,0,1,1.419.391m-12.882-4.456L318.81,55.9a4.334,4.334,0,0,0-3.892-2.153,5.318,5.318,0,0,0-5.258,5.133" transform="translate(-158.887 8.091)" fill="#212738"/>
    <path id="Path_345" data-name="Path 345" d="M397.191,63.357l.9,2.3a.919.919,0,0,1-.3,1.069,13.464,13.464,0,0,1-7.979,2.711c-6,0-10.433-4.347-10.433-9.936a9.892,9.892,0,0,1,10.143-9.977c4.842,0,8.8,3.119,9.41,8.648a.365.365,0,0,1-.251.384L385.213,62.9a5.38,5.38,0,0,0,4.637,2.277,9.664,9.664,0,0,0,5.9-2.217.934.934,0,0,1,1.439.4M384.3,58.885l9.149-2.981a4.334,4.334,0,0,0-3.892-2.153,5.318,5.318,0,0,0-5.258,5.133" transform="translate(-212.501 8.091)" fill="#212738"/>
    <path id="Path_346" data-name="Path 346" d="M149.346,60.048c0-5.961,5.136-10,10.364-10,5.961,0,10.18,4.035,10.18,10v8.6a.94.94,0,0,1-.941.941h-3.213a.982.982,0,0,1-.982-.982V60.048a5.2,5.2,0,0,0-5.16-5.228,5.037,5.037,0,0,0-5.112,5.227v8.6a.936.936,0,0,1-.936.936h-3.272a.928.928,0,0,1-.928-.928Z" transform="translate(-47.273 7.716)" fill="#212738"/>
    <path id="Path_347" data-name="Path 347" d="M234.563,0h3.317a.924.924,0,0,1,.924.924V23.471l8.11-8.735a1.006,1.006,0,0,1,.737-.321h3.534a.925.925,0,0,1,.677,1.556l-3.541,3.8,4.543,12.62a.927.927,0,0,1-.872,1.24H248.8a.956.956,0,0,1-.9-.626l-3.373-9.169L238.8,30.032V32.7a.939.939,0,0,1-.939.939h-3.241a1,1,0,0,1-.995-1V.934A.933.933,0,0,1,234.563,0" transform="translate(-107.813 43.666)" fill="#212738"/>
    <path id="Path_348" data-name="Path 348" d="M0,24.025V.953A.953.953,0,0,1,.953,0H4.289a.885.885,0,0,1,.885.885V16.078a7.511,7.511,0,0,1,5.637-2.125,9.459,9.459,0,0,1,9.875,9.515A10.267,10.267,0,0,1,10.489,34.1C4.41,34.16,0,30.078,0,24.025m15.5-.548a5.175,5.175,0,0,0-4.865-4.712c-3.477-.165-6.027,2.7-5.351,6.453a4.945,4.945,0,0,0,4.1,4A5.148,5.148,0,0,0,15.5,23.477" transform="translate(60 43.667)" fill="#212738"/>
  </g>
</svg>
