<?xml version="1.0" encoding="utf-8"?>
<!-- Generator: Adobe Illustrator 27.2.0, SVG Export Plug-In . SVG Version: 6.00 Build 0)  -->
<svg version="1.1" id="Layer_1" xmlns="http://www.w3.org/2000/svg" xmlns:xlink="http://www.w3.org/1999/xlink" x="0px" y="0px"
	 viewBox="0 0 421.9 67.1" style="enable-background:new 0 0 421.9 67.1;" xml:space="preserve">
<style type="text/css">
	.st0{fill:#212738;}
	.st1{fill:#FFFFFF;}
</style>
<path id="Path_301" class="st0" d="M43.3,47c-0.4-10.7,7.9-19.8,18.7-20.2c0.2,0,0.5,0,0.7,0c11.4,0,19.6,7.6,19.6,19v16.3
	c0,1-0.8,1.8-1.8,1.8h-5.9c-1,0-1.8-0.8-1.8-1.8l0,0v-1.3c-2.9,2.7-6.8,4.2-10.8,4c-9.8,0.4-18.2-7.2-18.6-17
	C43.3,47.5,43.3,47.2,43.3,47z M72.5,45.4c-0.2-5.3-4.6-9.6-9.9-9.6c-5.3,0-9.6,4.3-9.6,9.6c0,0.2,0,0.5,0,0.8
	c0.1,5.3,4.5,9.6,9.9,9.5c5.3,0,9.6-4.2,9.7-9.5C72.6,45.9,72.6,45.7,72.5,45.4L72.5,45.4L72.5,45.4z"/>
<path id="Path_344" class="st0" d="M205.4,52.8l1.7,4.4c0.3,0.7,0.1,1.6-0.6,2c-4.4,3.3-9.7,5.1-15.1,5.1
	c-11.4,0-19.8-8.3-19.8-18.9s8.3-19,19.3-19c9.2,0,16.7,5.9,17.9,16.3c0,0.4-0.2,0.7-0.6,0.8l-25.5,8.2c2,2.8,5.3,4.5,8.8,4.3
	c3.5,0,7.3-1.2,11.2-4.2c0.8-0.6,1.9-0.5,2.4,0.3C205.2,52.4,205.3,52.6,205.4,52.8 M180.9,44.3l17.4-5.7c-1.5-2.6-4.4-4.2-7.4-4.1
	C185.5,34.5,181.5,38.6,180.9,44.3"/>
<path id="Path_345" class="st0" d="M245.3,52.8l1.7,4.4c0.3,0.7,0.1,1.6-0.6,2c-4.4,3.3-9.7,5.1-15.1,5.1
	c-11.4,0-19.8-8.3-19.8-18.9s8.3-19,19.3-19c9.2,0,16.7,5.9,17.9,16.4c0,0.3-0.2,0.6-0.5,0.7l-25.6,8.2c2,2.8,5.3,4.5,8.8,4.3
	c3.5,0,7.3-1.2,11.2-4.2c0.8-0.6,1.9-0.5,2.5,0.3C245.2,52.5,245.3,52.6,245.3,52.8 M220.9,44.3l17.4-5.7c-1.5-2.6-4.4-4.2-7.4-4.1
	C225.4,34.5,221.4,38.6,220.9,44.3"/>
<path id="Path_346" class="st0" d="M88.4,45.8c0-11.3,9.8-19,19.7-19c11.3,0,19.3,7.7,19.3,19v16.3c0,1-0.8,1.8-1.8,1.8h-6.1
	c-1,0-1.9-0.8-1.9-1.9V45.8c0-5.5-4.3-9.9-9.8-9.9c-5.3-0.1-9.6,4.1-9.7,9.4c0,0.2,0,0.3,0,0.5v16.3c0,1-0.8,1.8-1.8,1.8h-6.2
	c-1,0-1.8-0.8-1.8-1.8L88.4,45.8L88.4,45.8z"/>
<path id="Path_347" class="st0" d="M135.3,0h6.3c1,0,1.8,0.8,1.8,1.8l0,0v42.8L158.7,28c0.4-0.4,0.9-0.6,1.4-0.6h6.7
	c1,0,1.8,0.8,1.8,1.8c0,0.4-0.2,0.9-0.5,1.2l-6.7,7.2l8.6,24c0.3,0.9-0.1,1.9-1.1,2.2c-0.2,0.1-0.4,0.1-0.6,0.1h-6.1
	c-0.8,0-1.4-0.5-1.7-1.2l-6.4-17.4l-10.9,11.8v5.1c0,1-0.8,1.8-1.8,1.8h-6.2c-1,0-1.9-0.8-1.9-1.9V1.8C133.5,0.8,134.3,0,135.3,0"/>
<path id="Path_348" class="st0" d="M0,45.6V1.8C0,0.8,0.8,0,1.8,0h6.3c0.9,0,1.7,0.8,1.7,1.7l0,0v28.9c2.1-2.5,6.1-4,10.7-4
	c10.7,0,18.3,7.2,18.8,18.1c0.4,10.8-8,19.8-18.8,20.2c-0.2,0-0.4,0-0.6,0C8.4,64.9,0,57.1,0,45.6 M28.3,44.6
	c-0.4-4.9-4.4-8.7-9.2-9c-6.6-0.3-11.4,5.1-10.2,12.3c0.7,3.9,3.8,7,7.8,7.6C23.8,56.6,28.9,51.3,28.3,44.6"/>
<g>
	<path class="st1" d="M303.1,2h86.4c17.9,0,32.4,14.5,32.4,32.4v0c0,17.9-14.5,32.4-32.4,32.4h-86.4c-17.9,0-32.4-14.5-32.4-32.4v0
		C270.7,16.5,285.2,2,303.1,2z"/>
	<path d="M389.6,6c15.7,0,28.4,12.7,28.4,28.4c0,15.7-12.7,28.4-28.4,28.4h-86.4c-15.7,0-28.4-12.7-28.4-28.4
		c0-15.7,12.7-28.4,28.4-28.4H389.6 M389.6,2h-86.4c-17.9,0-32.4,14.5-32.4,32.4v0c0,17.9,14.5,32.4,32.4,32.4h86.4
		c17.9,0,32.4-14.5,32.4-32.4v0C421.9,16.5,407.4,2,389.6,2L389.6,2z"/>
</g>
<g>
	<path d="M297.6,24.3V20h22.6v4.3h-8.8v24.1h-5.1V24.3H297.6z"/>
	<path d="M324.6,48.4V20h18.4v4.3h-13.3V32h12.4v4.3h-12.4V44h13.4v4.3H324.6z"/>
	<path d="M363.7,27.8c-0.1-1.2-0.7-2.2-1.6-2.8c-1-0.7-2.2-1-3.7-1c-1.1,0-2,0.2-2.8,0.5c-0.8,0.3-1.4,0.8-1.8,1.3
		c-0.4,0.6-0.6,1.2-0.6,1.9c0,0.6,0.1,1.1,0.4,1.5s0.6,0.8,1.1,1.1c0.5,0.3,1,0.6,1.6,0.8c0.6,0.2,1.1,0.4,1.7,0.5l2.7,0.7
		c1.1,0.2,2.1,0.6,3.1,1s1.9,1,2.7,1.6c0.8,0.6,1.4,1.4,1.9,2.3s0.7,2,0.7,3.2c0,1.7-0.4,3.1-1.3,4.4c-0.8,1.3-2.1,2.2-3.7,3
		s-3.5,1.1-5.8,1.1c-2.2,0-4.1-0.3-5.7-1c-1.6-0.7-2.9-1.7-3.8-3c-0.9-1.3-1.4-2.9-1.5-4.8h5.1c0.1,1,0.4,1.8,0.9,2.5
		c0.5,0.7,1.2,1.1,2.1,1.5s1.8,0.5,2.9,0.5c1.1,0,2.1-0.2,2.9-0.5s1.5-0.8,2-1.4c0.5-0.6,0.7-1.3,0.7-2.1c0-0.7-0.2-1.4-0.7-1.8
		s-1-0.9-1.8-1.2c-0.8-0.3-1.7-0.6-2.7-0.9l-3.2-0.8c-2.3-0.6-4.2-1.5-5.5-2.7c-1.4-1.2-2-2.9-2-4.9c0-1.7,0.5-3.1,1.4-4.4
		c0.9-1.3,2.1-2.2,3.7-2.9c1.6-0.7,3.3-1,5.3-1c2,0,3.8,0.3,5.3,1c1.5,0.7,2.7,1.7,3.6,2.9c0.9,1.2,1.3,2.6,1.3,4.2H363.7z"/>
	<path d="M372.4,24.3V20H395v4.3h-8.8v24.1h-5.1V24.3H372.4z"/>
</g>
</svg>
