<?xml version="1.0" encoding="UTF-8"?>
<svg id="Layer_1" data-name="Layer 1" xmlns="http://www.w3.org/2000/svg" viewBox="0 0 29.65 29.65">
  <polygon points="21.1 9.61 12.8 17.62 8.59 13.3 7.36 14.5 12.76 20.04 22.29 10.84 21.1 9.61" fill="#212738"/>
  <path id="icons8-wallet" d="m3.97,3.63c-.25,0-.46.2-.47.45s.2.46.45.47c.25,0,.46-.2.47-.45,0,0,0,0,0,0,0-.25-.2-.46-.45-.46Zm1.81,0c-.25,0-.46.2-.47.45s.2.46.45.47c.25,0,.46-.2.47-.45,0,0,0,0,0,0,0-.25-.2-.46-.45-.46Zm1.81,0c-.25,0-.46.2-.47.45,0,.25.2.46.45.47s.46-.2.47-.45c0,0,0,0,0,0,0-.25-.2-.46-.45-.46Zm1.81,0c-.25,0-.46.2-.47.45,0,.25.2.46.45.47s.46-.2.47-.45c0,0,0,0,0,0,0-.25-.2-.46-.45-.46Zm1.81,0c-.25,0-.46.2-.47.45,0,.25.2.46.45.47s.46-.2.47-.45c0,0,0,0,0,0,0-.25-.2-.46-.45-.46h0Zm1.81,0c-.25,0-.46.2-.47.45,0,.25.2.46.45.47s.46-.2.47-.45c0,0,0,0,0,0,0-.25-.2-.46-.45-.46h0Zm1.81,0c-.25,0-.46.2-.47.45,0,.25.2.46.45.47s.46-.2.47-.45c0,0,0,0,0,0,0-.25-.2-.46-.45-.46h0Zm1.81,0c-.25,0-.46.2-.47.45,0,.25.2.46.45.47s.46-.2.47-.45c0,0,0,0,0,0,0-.25-.2-.46-.45-.46h0Zm1.81,0c-.25,0-.46.2-.47.45,0,.25.2.46.45.47s.46-.2.47-.45c0,0,0,0,0,0,0-.25-.2-.45-.45-.46h0Zm1.81,0c-.25,0-.46.2-.47.45,0,.25.2.46.45.47s.46-.2.47-.45c0,0,0,0,0,0,0-.25-.2-.45-.45-.46h0Zm1.81,0c-.25,0-.46.2-.47.45,0,.25.2.46.45.47s.46-.2.47-.45c0,0,0,0,0,0,0-.25-.2-.45-.45-.46h0Zm1.81,0c-.25,0-.46.2-.47.45,0,.25.2.46.45.47s.46-.2.47-.45c0,0,0,0,0,0,0-.25-.2-.45-.45-.46h0Zm1.81,0c-.25,0-.46.2-.47.45,0,.25.2.46.45.47s.46-.2.47-.45c0,0,0,0,0,0,0-.25-.2-.45-.45-.46h0ZM3.97,5.48c-.25,0-.46.2-.47.45s.2.46.45.47c.25,0,.46-.2.47-.45,0,0,0,0,0,0,0-.25-.2-.46-.45-.46Zm21.72,0c-.25,0-.46.2-.47.45,0,.25.2.46.45.47s.46-.2.47-.45c0,0,0,0,0,0,0-.25-.2-.46-.45-.46h0Zm0,2.15c-.25,0-.46.2-.47.45,0,.25.2.46.45.47s.46-.2.47-.45c0,0,0,0,0,0,0-.25-.2-.45-.45-.46h0Zm0,1.85c-.25,0-.46.2-.47.45,0,.25.2.46.45.47s.46-.2.47-.45c0,0,0,0,0,0,0-.25-.2-.46-.45-.46h0Zm0,1.99c-.25,0-.46.2-.47.45,0,.25.2.46.45.47s.46-.2.47-.45c0,0,0,0,0,0,0-.25-.2-.45-.45-.46h0Zm0,1.85c-.25,0-.46.2-.47.45,0,.25.2.46.45.47s.46-.2.47-.45c0,0,0,0,0,0,0-.25-.2-.46-.45-.46h0Zm0,1.67c-.25,0-.46.2-.47.45,0,.25.2.46.45.47s.46-.2.47-.45c0,0,0,0,0,0,0-.25-.2-.46-.45-.46h0ZM3.97,7.32c-.25,0-.46.2-.47.45s.2.46.45.47c.25,0,.46-.2.47-.45,0,0,0,0,0,0,0-.25-.2-.46-.45-.46Zm0,1.85c-.25,0-.46.2-.47.45s.2.46.45.47c.25,0,.46-.2.47-.45,0,0,0,0,0,0,0-.25-.2-.46-.45-.46Zm0,1.85c-.25,0-.46.2-.47.45s.2.46.45.47c.25,0,.46-.2.47-.45,0,0,0,0,0,0,0-.25-.2-.46-.45-.46Zm0,1.84c-.25,0-.46.2-.47.45s.2.46.45.47c.25,0,.46-.2.47-.45,0,0,0,0,0,0,0-.25-.2-.45-.45-.45h0Zm0,1.84c-.25,0-.46.2-.47.45s.2.46.45.47c.25,0,.46-.2.47-.45,0,0,0,0,0,0,0-.25-.2-.45-.45-.45h0Zm0,1.84c-.25,0-.46.2-.47.45s.2.46.45.47c.25,0,.46-.2.47-.45,0,0,0,0,0,0,0-.25-.2-.45-.45-.45h0Zm21.72,0c-.25,0-.46.2-.47.45,0,.25.2.46.45.47s.46-.2.47-.45c0,0,0,0,0,0,0-.25-.2-.45-.45-.45h0Zm-21.72,1.85c-.25,0-.46.2-.47.45s.2.46.45.47c.25,0,.46-.2.47-.45,0,0,0,0,0,0,0-.25-.2-.46-.45-.46Zm21.72,0c-.25,0-.46.2-.47.45s.2.46.45.47c.25,0,.46-.2.47-.45,0,0,0,0,0,0,0-.25-.2-.46-.45-.46h0Zm-21.72,1.84c-.25,0-.46.2-.47.45s.2.46.45.47c.25,0,.46-.2.47-.45,0,0,0,0,0,0,0-.25-.2-.46-.45-.46Zm21.72,0c-.25,0-.46.2-.47.45s.2.46.45.47c.25,0,.46-.2.47-.45,0,0,0,0,0,0,0-.25-.2-.46-.45-.46h0Zm-21.72,1.85c-.25,0-.46.2-.47.45s.2.46.45.47c.25,0,.46-.2.47-.45,0,0,0,0,0,0,0-.25-.2-.46-.45-.46Zm0,1.54c-.25,0-.46.2-.47.45s.2.46.45.47c.25,0,.46-.2.47-.45,0,0,0,0,0,0,0-.25-.2-.46-.45-.46Zm0,1.46c-.25,0-.46.2-.47.45s.2.46.45.47c.25,0,.46-.2.47-.45,0,0,0,0,0,0,0-.25-.2-.46-.45-.46Zm1.81,0c-.25,0-.46.2-.47.45s.2.46.45.47c.25,0,.46-.2.47-.45,0,0,0,0,0,0,0-.25-.2-.46-.45-.46Zm1.81,0c-.25,0-.46.2-.47.45,0,.25.2.46.45.47.25,0,.46-.2.47-.45,0,0,0,0,0,0,0-.25-.2-.46-.45-.46Zm1.81,0c-.25,0-.46.2-.47.45,0,.25.2.46.45.47.25,0,.46-.2.47-.45,0,0,0,0,0,0,0-.25-.2-.46-.45-.46Zm1.81,0c-.25,0-.46.2-.47.45,0,.25.2.46.45.47.25,0,.46-.2.47-.45,0,0,0,0,0,0,0-.25-.2-.46-.45-.46h0Zm1.81,0c-.25,0-.46.2-.47.45,0,.25.2.46.45.47.25,0,.46-.2.47-.45,0,0,0,0,0,0,0-.25-.2-.46-.45-.46h0Zm1.81,0c-.25,0-.46.2-.47.45,0,.25.2.46.45.47.25,0,.46-.2.47-.45,0,0,0,0,0,0,0-.25-.2-.46-.45-.46h0Zm1.81,0c-.25,0-.46.2-.47.45,0,.25.2.46.45.47.25,0,.46-.2.47-.45,0,0,0,0,0,0,0-.25-.2-.46-.45-.46h0Zm1.81,0c-.25,0-.46.2-.47.45,0,.25.2.46.45.47.25,0,.46-.2.47-.45,0,0,0,0,0,0,0-.25-.2-.45-.45-.46h0Zm1.81,0c-.25,0-.46.2-.47.45,0,.25.2.46.45.47.25,0,.46-.2.47-.45,0,0,0,0,0,0,0-.25-.2-.45-.45-.46h0Zm1.81,0c-.25,0-.46.2-.47.45s.2.46.45.47c.25,0,.46-.2.47-.45,0,0,0,0,0,0,0-.25-.2-.45-.45-.46h0Zm1.81,0c-.25,0-.46.2-.47.45s.2.46.45.47c.25,0,.46-.2.47-.45,0,0,0,0,0,0,0-.25-.2-.45-.45-.46h0Zm1.81-3c-.25,0-.46.2-.47.45s.2.46.45.47c.25,0,.46-.2.47-.45,0,0,0,0,0,0,0-.25-.2-.45-.45-.46h0Zm0,1.54c-.25,0-.46.2-.47.45s.2.46.45.47c.25,0,.46-.2.47-.45,0,0,0,0,0,0,0-.25-.2-.46-.45-.46h0Zm0,1.46c-.25,0-.46.2-.47.45s.2.46.45.47c.25,0,.46-.2.47-.45,0,0,0,0,0,0,0-.25-.2-.45-.45-.46h0Z" fill="#212738"/>
  <path d="m27.32.9c.79,0,1.43.64,1.43,1.43v24.99c0,.79-.64,1.43-1.43,1.43H2.33c-.79,0-1.43-.64-1.43-1.43V2.33c0-.79.64-1.43,1.43-1.43h24.99m0-.9H2.33C1.04,0,0,1.04,0,2.33v24.99c0,1.29,1.04,2.33,2.33,2.33h24.99c1.29,0,2.33-1.04,2.33-2.33V2.33c0-1.29-1.04-2.33-2.33-2.33h0Z" fill="#212738"/>
</svg>