<?xml version="1.0" encoding="UTF-8"?>
<svg id="Layer_1" data-name="Layer 1" xmlns="http://www.w3.org/2000/svg" viewBox="0 0 372.17 67.03">
  <path d="m167,67.03c-16.51,0-32.27-.28-46.5-.77-33.28-1.14-62.06-3.42-83.23-6.6C1.65,54.31.46,48.14.07,46.12c-.24-1.25.13-2.58,1.1-3.92,6.23-8.66,40.26-21.11,102.3-29.54.82-.11,15.21-1.37,15.32-.55h0c.11.82-14.1,3.41-14.91,3.52C43.04,23.9,9.27,36.07,3.6,43.95c-.32.45-.69,1.09-.59,1.6,1.28,6.64,38.62,15.01,117.58,17.71,56.37,1.93,136.63.65,192.82-8.73,37.34-6.23,57.11-15.26,55.67-25.43-.57-3.39-25.58-14.7-81.24-21.24C240.37,2.29,158.52-1.29,37.95,13.26c-.82.1-22.18,2.98-22.28,2.16h0c-.1-.82,21.1-5.03,21.93-5.13C158.6-4.32,240.75-.71,288.43,4.91c51.1,6.03,82.65,16.82,83.64,23.77,1.75,12.39-17.82,22.08-58.15,28.81-42.2,7.04-97.88,9.54-146.92,9.54Z" fill="#6bba61"/>
</svg>